# xmcd
#
# Track frame offsets:
#	150
#	10242
#	18812
#	28411
#	43014
#	58229
#	69433
#	77672
#	87727
#	96125
#	104456
#	113287
#	131391
#	140636
#	150372
#	157772
#	166011
#	176934
#	184981
#	196025
#	205358
#	213868
#	223245
#	232252
#	239606
#	250071
#	258032
#	264172
#	271785
#	281582
#
# Disc length: 3850 seconds
#
# Revision: 1
# Processed by: cddbd v1.5.1PL0 Copyright (c) Steve Scherf et al.
# Submitted via: CDex 1.50Beta5
#
DISCID=a10f081e
DTITLE=春口雅子 - こどものうたベスト
DYEAR=2003
DGENRE=
TTITLE0=春口雅子/ゆめのパレード
TTITLE1=神崎ゆう子/たこやきなんぼマンボ
TTITLE2=速水けんたろう/バンジョーのジョー
TTITLE3=速水けんたろう/きのこの唄
TTITLE4=速水けんたろう/ひょっこりひょうたん島
TTITLE5=春口雅子/ハオハオ
TTITLE6=神崎ゆう子/ビックリ・タマゲタ
TTITLE7=神崎ゆう子/たまごまごまご
TTITLE8=しばたかの/むしばけんせつかぶしきがいしゃ
TTITLE9=春口雅子/星空カーニバル
TTITLE10=しばたかの/さるさるさ
TTITLE11=神崎ゆう子/となりのトトロ
TTITLE12=速水けんたろう/わたぼうし
TTITLE13=神崎ゆう子/チキンダンス
TTITLE14=神崎ゆう子/こうえんにいきましょう
TTITLE15=神崎ゆう子/イカイカイルカ
TTITLE16=神崎ゆう子/おまかせ 元気マン
TTITLE17=神崎ゆう子/にじのむこうに
TTITLE18=神崎ゆう子/あさごはんマーチ
TTITLE19=神崎ゆう子/かっぱなにさま?かっぱさま!
TTITLE20=神崎ゆう子/シアワセ
TTITLE21=神崎ゆう子/しっぱいのせいこう
TTITLE22=速水けんたろう/おにのパンツ(フニクリ・フニクラ/FUNICULI FUNICULA)
TTITLE23=神崎ゆう子/ドンドンどこどこ
TTITLE24=神崎ゆう子/クレヨンロケット
TTITLE25=神崎ゆう子/スッカラスカンク
TTITLE26=森みゆき/やぎさんゆうびん
TTITLE27=しばたかの/ゴリラのおんがくかい
TTITLE28=神崎ゆう子/バイ・バイ・バイ!
TTITLE29=神崎ゆう子/もぐらトンネル
EXTD=
EXTT0=
EXTT1=
EXTT2=
EXTT3=
EXTT4=
EXTT5=
EXTT6=
EXTT7=
EXTT8=
EXTT9=
EXTT10=
EXTT11=
EXTT12=
EXTT13=
EXTT14=
EXTT15=
EXTT16=
EXTT17=
EXTT18=
EXTT19=
EXTT20=
EXTT21=
EXTT22=
EXTT23=
EXTT24=
EXTT25=
EXTT26=
EXTT27=
EXTT28=
EXTT29=
PLAYORDER=
